<svg width="258" height="40" viewBox="0 0 258 40" fill="none" xmlns="http://www.w3.org/2000/svg">
<path fill-rule="evenodd" clip-rule="evenodd" d="M17 26.9368V35.4683C8.90561 34.9528 2.5 28.2245 2.5 20C2.5 11.4396 9.43959 4.5 18 4.5C26.5604 4.5 33.5 11.4396 33.5 20C33.5 28.2245 27.0944 34.9528 19 35.4683V26.9368C22.9662 26.4314 26 22.9587 26 18.8V14C26 13.4477 25.5523 13 25 13C24.4477 13 24 13.4477 24 14V18.8C24 21.8937 21.8199 24.4233 19 24.9139V15C19 14.4477 18.5523 14 18 14C17.4477 14 17 14.4477 17 15V24.9139C14.1801 24.4233 12 21.8937 12 18.8V14C12 13.4477 11.5523 13 11 13C10.4477 13 10 13.4477 10 14V18.8C10 22.9587 13.0338 26.4314 17 26.9368ZM18 38C27.9411 38 36 29.9411 36 20C36 10.0589 27.9411 2 18 2C8.05887 2 0 10.0589 0 20C0 29.9411 8.05887 38 18 38Z" fill="#161924"/>
<path d="M239.833 31.5999C238.937 31.5999 238.393 30.9919 238.393 29.9359V10.9919C238.393 9.48788 239.417 8.43188 240.825 8.43188C242.265 8.43188 242.969 9.13588 243.705 10.3519L254.137 27.9199V25.1039V10.0959C254.137 9.03988 254.713 8.43188 255.609 8.43188C256.505 8.43188 257.081 9.03988 257.081 10.0959V29.2319C257.081 30.6399 256.153 31.5999 254.841 31.5999C253.529 31.5999 252.857 30.9599 252.185 29.8399L241.305 11.6319V14.3519V29.9359C241.305 30.9919 240.729 31.5999 239.833 31.5999Z" fill="#161924"/>
<path d="M216.992 31.696C210.976 31.696 206.368 27.056 206.368 20.016C206.368 12.976 210.944 8.30396 216.992 8.30396C223.072 8.30396 227.616 12.976 227.616 20.016C227.616 27.056 223.008 31.696 216.992 31.696ZM209.44 20.016C209.44 25.744 212.448 29.264 216.992 29.264C221.536 29.264 224.544 25.744 224.544 20.016C224.544 14.288 221.472 10.768 216.992 10.768C212.544 10.768 209.44 14.288 209.44 20.016Z" fill="#161924"/>
<path d="M179.758 31.2159C178.702 31.2159 178.094 30.6079 178.094 29.5519V10.4799C178.094 9.42392 178.702 8.81592 179.758 8.81592H184.814C192.078 8.81592 196.846 12.0159 196.846 19.9839C196.846 26.7999 192.974 31.2159 185.518 31.2159H179.758ZM181.006 28.7519H185.166C190.542 28.7519 193.806 26.2559 193.806 19.9839C193.806 14.3839 191.15 11.2479 185.038 11.2479H181.006V28.7519Z" fill="#161924"/>
<path d="M164.446 31.5999C163.55 31.5999 163.006 30.9919 163.006 29.9359V10.0959C163.006 9.03988 163.55 8.43188 164.446 8.43188C165.342 8.43188 165.918 9.03988 165.918 10.0959V29.9359C165.918 30.9919 165.342 31.5999 164.446 31.5999Z" fill="#161924"/>
<path d="M138.614 31.2159C137.558 31.2159 136.95 30.6079 136.95 29.5519V10.4799C136.95 9.42392 137.558 8.81592 138.614 8.81592H150.518C151.446 8.81592 151.958 9.26392 151.958 10.0319C151.958 10.7999 151.446 11.2479 150.518 11.2479H139.862V18.5759H150.006C150.934 18.5759 151.446 19.0559 151.446 19.8239C151.446 20.5919 150.934 21.0399 150.006 21.0399H139.862V28.7519H150.902C151.83 28.7519 152.342 29.2319 152.342 29.9999C152.342 30.7679 151.83 31.2159 150.902 31.2159H138.614Z" fill="#161924"/>
<path d="M117.596 31.696C113.308 31.696 110.14 29.872 108.988 26.64C108.348 24.848 108.86 23.632 110.204 23.632C111.132 23.632 111.42 24.208 111.676 25.136C112.348 27.76 114.556 29.264 117.628 29.264C121.308 29.264 123.324 27.632 123.324 25.2C123.324 23.056 121.532 22.096 118.876 21.488L115.548 20.72C112.124 19.92 109.308 17.968 109.308 14.544C109.308 10.928 112.764 8.30396 117.5 8.30396C121.212 8.30396 123.996 9.80795 125.18 12.464C125.948 14.192 125.532 15.472 124.22 15.472C123.324 15.472 122.94 14.928 122.652 14C122.012 11.984 120.124 10.768 117.436 10.768C114.524 10.768 112.38 12.24 112.38 14.288C112.38 16.208 113.66 17.36 116.284 17.968L120.252 18.864C123.804 19.696 126.396 21.616 126.396 25.008C126.396 28.688 123.1 31.696 117.596 31.696Z" fill="#161924"/>
<path d="M88.8675 31.696C82.8515 31.696 78.2435 27.056 78.2435 20.016C78.2435 12.976 82.8195 8.30396 88.8675 8.30396C94.9475 8.30396 99.4915 12.976 99.4915 20.016C99.4915 27.056 94.8835 31.696 88.8675 31.696ZM81.3155 20.016C81.3155 25.744 84.3235 29.264 88.8675 29.264C93.4115 29.264 96.4195 25.744 96.4195 20.016C96.4195 14.288 93.3475 10.768 88.8675 10.768C84.4195 10.768 81.3155 14.288 81.3155 20.016Z" fill="#161924"/>
<path d="M54.472 31.5999C53.576 31.5999 53 30.9919 53 29.9359V10.4799C53 9.42392 53.608 8.81592 54.664 8.81592H61.736C65.64 8.81592 69.416 10.2559 69.416 15.1839C69.416 20.0799 65.8 21.5199 61.736 21.5199H55.912V29.9359C55.912 30.9919 55.368 31.5999 54.472 31.5999ZM55.912 19.0879H61.704C65.128 19.0879 66.44 17.5519 66.44 15.1839C66.44 12.7839 65.128 11.2479 61.704 11.2479H55.912V19.0879Z" fill="#161924"/>
</svg>
